<svg width="32" height="32" viewBox="0 0 32 32" fill="none" xmlns="http://www.w3.org/2000/svg">
<g id="&#228;&#186;&#164;&#233;&#128;&#154;&#233;&#162;&#134;&#229;&#159;&#159;&#231;&#187;&#191;&#232;&#137;&#178;&#228;&#189;&#142;&#231;&#162;&#179;&#232;&#161;&#140;&#229;&#138;&#168;">
<g id="Union">
<path d="M7.86982 6.00026C7.79819 5.99684 7.72997 6.02752 7.68563 6.08546C7.12627 6.82175 6.79201 7.96025 6.79539 9.12603C6.79539 10.5679 7.2968 11.7405 8.17338 12.3473C8.58608 12.6302 9.07382 12.787 9.62296 12.8143C10.1107 12.8381 10.653 12.7529 11.2363 12.5688C9.33986 11.9382 7.85617 10.1691 7.85617 8.1341C7.85617 8.1341 8.35756 10.0396 9.90946 11.236C9.90946 11.236 9.92993 11.2531 9.96745 11.2803C10.2881 11.5189 10.6564 11.7303 11.0691 11.8871C11.7001 12.153 12.5699 12.3984 13.6136 12.3984V11.5462C13.6136 11.5462 12.7984 11.6757 11.8638 11.4508C11.915 11.0792 11.9389 10.7452 11.9389 10.4452C11.9389 9.66121 11.7683 9.10218 11.4034 8.68972C11.076 8.31818 10.6394 8.11365 10.1755 7.8989C9.46619 7.56832 8.66096 7.19303 8.04036 6.10593C8.00625 6.04457 7.94144 6.00366 7.86982 6.00026Z" fill="#409EFF"/>
<path fill-rule="evenodd" clip-rule="evenodd" d="M30.5202 10.308C30.5202 9.05837 29.4463 8.04545 28.1217 8.04545H16.6084C15.2838 8.04545 14.2099 9.05839 14.2099 10.308L14.1103 12.0963L15.7473 16.2569C15.7392 16.2358 15.7347 16.2228 15.7348 16.2202C15.7829 14.6749 15.9358 11.5358 15.9358 11.5358C15.9358 10.2714 16.3929 9.77126 17.5486 9.77126H27.1752C28.3308 9.77126 28.7879 10.2714 28.7879 11.5358L28.9728 17.2687H16.1733C16.1732 17.2687 15.8611 16.5419 15.7636 16.2982L16.8547 19.0713V25.9785C16.8547 25.9785 17.9022 25.9672 17.9133 25.9785C18.4889 25.9785 18.9554 25.5085 18.9554 24.9289V24.4696C18.9554 24.4022 18.9478 24.3367 18.9357 24.2728H25.7944C25.7823 24.3366 25.7747 24.4022 25.7747 24.4696V24.9289C25.7747 25.5085 26.2413 25.9785 26.8169 25.9785H28.315C28.8905 25.9785 29.3571 25.5085 29.3571 24.9289V24.4696C29.3571 24.4022 29.3495 24.3367 29.3374 24.2728H30.9999L30.5202 10.308ZM28.04 22.0846C27.3125 22.0846 26.7228 21.4906 26.7228 20.7579C26.7228 20.0252 27.3125 19.4313 28.04 19.4313C28.7674 19.4313 29.3571 20.0252 29.3571 20.7579C29.3571 21.4906 28.7674 22.0846 28.04 22.0846Z" fill="#409EFF"/>
<path d="M15.7636 16.2982C15.7572 16.2823 15.7517 16.2684 15.7473 16.2569L15.7636 16.2982Z" fill="#409EFF"/>
<path fill-rule="evenodd" clip-rule="evenodd" d="M14.5729 17.4995L13.326 13.9144H3.12124L1.87428 17.4995L0.999939 19.6042V24.4867H1.50964V25.909C1.50964 26.1461 1.77269 26.4545 2.00817 26.4545H3.2487C3.48417 26.4545 3.61504 26.1461 3.61504 25.909V24.4867H12.7487V25.909C12.7487 26.1461 12.9998 26.4545 13.2351 26.4545H14.4394C14.6748 26.4545 14.7893 26.1461 14.7893 25.909V24.4867H15.3273V19.6042L14.5729 17.4995ZM3.75945 14.7342H12.6264L14.2191 19.724H2.12706L3.75945 14.7342ZM3.68935 22.9713C3.15491 22.9713 2.72161 22.5349 2.72161 21.9966C2.72161 21.4583 3.1548 21.0219 3.68935 21.0219C4.22379 21.0219 4.65703 21.4583 4.65703 21.9966C4.65703 22.5349 4.22381 22.9713 3.68935 22.9713ZM12.7504 22.9713C12.2159 22.9713 11.7827 22.5349 11.7827 21.9966C11.7827 21.4583 12.2159 21.0219 12.7504 21.0219C13.2849 21.0219 13.7181 21.4583 13.7181 21.9966C13.7181 22.5349 13.2849 22.9713 12.7504 22.9713Z" fill="#409EFF"/>
</g>
</g>
</svg>
